<svg width="76" height="75" viewBox="0 0 76 75" fill="none" xmlns="http://www.w3.org/2000/svg">
<path d="M50.6667 37.3846L38 18L25.3333 37.3846L9.5 18L12.6667 54H63.3333L66.5 18L50.6667 37.3846Z" fill="#5699E9"/>
<path fill-rule="evenodd" clip-rule="evenodd" d="M67.6875 65.625H8.3125C7.4375 65.625 6.75 64.9375 6.75 64.0625V57.8125C6.75 56.9375 7.4375 56.25 8.3125 56.25H67.6875C68.5625 56.25 69.25 56.9375 69.25 57.8125V64.0625C69.25 64.9375 68.5625 65.625 67.6875 65.625Z" fill="#FF7373"/>
<path d="M9.875 15.625C11.6009 15.625 13 14.2259 13 12.5C13 10.7741 11.6009 9.375 9.875 9.375C8.14912 9.375 6.75 10.7741 6.75 12.5C6.75 14.2259 8.14912 15.625 9.875 15.625Z" fill="#FF7373"/>
<path d="M66.125 15.625C67.8509 15.625 69.25 14.2259 69.25 12.5C69.25 10.7741 67.8509 9.375 66.125 9.375C64.3991 9.375 63 10.7741 63 12.5C63 14.2259 64.3991 15.625 66.125 15.625Z" fill="#FF7373"/>
<path d="M38 15.625C39.7259 15.625 41.125 14.2259 41.125 12.5C41.125 10.7741 39.7259 9.375 38 9.375C36.2741 9.375 34.875 10.7741 34.875 12.5C34.875 14.2259 36.2741 15.625 38 15.625Z" fill="#FF7373"/>
</svg>
